# xmcd
#
# Track frame offsets: 
#        150
#        22580
#        40218
#        60480
#        81347
#        99730
#        106452
#        126490
#        145962
#        166189
#        184302
#        202402
#        221402
#
# Disc length: 3213 seconds
#
# Revision: 0
# Processed by: cddbd v1.5.2PL0 Copyright (c) Steve Scherf et al.
# Submitted via: ExactAudioCopyFreeDBPlugin 1.0
#
DISCID=bd0c8b0d
DTITLE=Arika Kane - Arika Kane
DYEAR=2010
DGENRE=Pop
TTITLE0=Make It
TTITLE1=Watcha Waitin 4
TTITLE2=Bcuz I Luv U
TTITLE3=Ring My Bell
TTITLE4=Here With Me
TTITLE5=Follow Me (Interlude)
TTITLE6=All My Life
TTITLE7=Rock Witcha
TTITLE8=Tonight I'm Urs
TTITLE9=Can't Be Without U
TTITLE10=4 The Lovers
TTITLE11=Never Really Knew U
TTITLE12=Why Did We Fall 'n Luv
EXTD=
EXTT0=
EXTT1=
EXTT2=
EXTT3=
EXTT4=
EXTT5=
EXTT6=
EXTT7=
EXTT8=
EXTT9=
EXTT10=
EXTT11=
EXTT12=
PLAYORDER=
